<svg width="36" height="78" viewBox="0 0 36 78" fill="none" xmlns="http://www.w3.org/2000/svg">
<path d="M3.80151 7.55306C3.80151 8.53587 3.80151 12.9226 3.80151 12.9226H-7.48728e-08V19.4885H3.80151V39H11.6106V19.489H16.8509C16.8509 19.489 17.3417 16.3407 17.5795 12.8984C16.8975 12.8984 11.6401 12.8984 11.6401 12.8984C11.6401 12.8984 11.6401 9.07856 11.6401 8.40902C11.6401 7.73803 12.4916 6.83546 13.3331 6.83546C14.173 6.83546 15.9458 6.83546 17.5878 6.83546C17.5878 5.94151 17.5878 2.8527 17.5878 2.34586e-08C15.3958 2.34586e-08 12.9021 2.34586e-08 11.8029 2.34586e-08C3.60847 -0.000453347 3.80151 6.57197 3.80151 7.55306Z" transform="scale(2)" fill="#454545"/>
</svg>
