<svg width="80" height="76" viewBox="0 0 80 76" fill="none" xmlns="http://www.w3.org/2000/svg">
<path d="M0 4.30363C0 3.05674 0.440867 2.02697 1.32104 1.21587C2.20121 0.404774 3.34559 0 4.75417 0C6.13775 0 7.25711 0.39857 8.11227 1.19726C8.99244 2.02077 9.43331 3.09396 9.43331 4.41529C9.43331 5.61256 9.00651 6.61131 8.15135 7.41C7.27118 8.23351 6.1143 8.64448 4.6807 8.64448H4.64318C3.2596 8.64448 2.14024 8.23351 1.28508 7.41C0.429924 6.58649 0 5.55052 0 4.30363ZM0.490895 37.05V12.0502H8.86581V37.05H0.490895ZM13.5059 37.05H21.8808V23.0907C21.8808 22.2176 21.9808 21.5445 22.1825 21.07C22.5343 20.2216 23.0689 19.5036 23.7865 18.9174C24.5025 18.3311 25.403 18.038 26.4833 18.038C29.3005 18.038 30.7091 19.9223 30.7091 23.6894V37.05H39.084V22.717C39.084 19.0244 38.2038 16.2235 36.4435 14.316C34.6831 12.4069 32.3568 11.4531 29.4646 11.4531C26.2207 11.4531 23.6927 12.838 21.8823 15.6078V15.6823H21.8448L21.8823 15.6078V12.0502H13.5059C13.5559 12.8489 13.5809 15.3302 13.5809 19.4974C13.5809 23.6645 13.5559 29.5159 13.5059 37.05Z" transform="translate(0.886719 1.90039) scale(2)" fill="#454545"/>
</svg>
