<svg width="100" height="100" viewBox="0 0 100 100" fill="none" xmlns="http://www.w3.org/2000/svg">
<path d="M31.1229 64.7766C30.4156 64.7766 29.7966 64.514 29.2661 63.9888L1.85676 36.8526C-0.618921 34.4016 -0.618921 30.375 1.85676 27.924L29.2661 0.787824C30.3271 -0.262608 32.0071 -0.262608 32.9797 0.787824C34.0407 1.83826 34.0407 3.50144 32.9797 4.46433L5.57029 31.6005C5.12821 32.0382 5.12821 32.6509 5.57029 33.0886L32.9797 60.2247C34.0407 61.2752 34.0407 62.9384 32.9797 63.9013C32.4492 64.514 31.7418 64.7766 31.1229 64.7766Z" transform="translate(0 17.6284)" fill="#1E1F24"/>
<path d="M2.65252 64.6891C1.94518 64.6891 1.32626 64.4265 0.795757 63.9013C-0.265251 62.8508 -0.265251 61.1876 0.795757 60.2247L28.2051 33.0886C28.6472 32.6509 28.6472 32.0382 28.2051 31.6005L0.795757 4.46433C-0.265251 3.4139 -0.265251 1.75072 0.795757 0.787824C1.85677 -0.262607 3.53669 -0.262607 4.50928 0.787824L31.9187 27.924C34.3943 30.375 34.3943 34.4016 31.9187 36.8526L4.50928 63.9888C3.97878 64.4265 3.35986 64.6891 2.65252 64.6891Z" transform="translate(66.2246 17.7163)" fill="#1E1F24"/>
<path d="M1.36053 100C1.27211 100 1.1837 100 1.09528 100C0.387942 99.9125 -0.142563 99.2122 0.0342718 98.5119L17.7177 1.08436C17.8062 0.384075 18.5135 -0.14114 19.2208 0.0339315C19.9282 0.121467 20.4587 0.821755 20.2818 1.52204L2.59838 98.9496C2.59838 99.5623 1.97945 100 1.36053 100Z" transform="translate(39.7539)" fill="#1E1F24"/>
</svg>
