<svg width="22" height="32" viewBox="0 0 22 32" fill="none" xmlns="http://www.w3.org/2000/svg">
<path d="M21.5 0H0.3C0.1 0 0 0.1 0 0.3V12.4C0 12.6 0.1 12.7 0.3 12.7H21.5C21.7 12.7 21.8 12.6 21.8 12.4V0.3C21.8 0.1 21.7 0 21.5 0Z" fill="white"/>
<path d="M21.5 1.90735e-07H0.3C0.1 1.90735e-07 0 0.2 0 0.3V1.8C0 1.9 0.1 2 0.2 2.1L8.3 6.3L7.9 13.9C7.9 14 7.9 14.1 7.9 14.2C7.9 15.9 9.3 17.2 10.9 17.2C12.6 17.2 13.9 15.8 13.9 14.2C13.9 14.1 13.9 14 13.9 13.9L13.5 6.3L21.7 2C21.8 1.9 21.9 1.8 21.9 1.7V0.2C21.8 0.2 21.7 1.90735e-07 21.5 1.90735e-07ZM10.9 15.6C10.2 15.6 9.6 15 9.6 14.3C9.6 13.6 10.2 13 10.9 13C11.6 13 12.2 13.6 12.2 14.3C12.2 15 11.6 15.6 10.9 15.6Z" transform="translate(0 14.7998)" fill="white"/>
</svg>
