<svg width="107" height="100" viewBox="0 0 107 100" fill="none" xmlns="http://www.w3.org/2000/svg">
<path d="M7.72628 0H0V48.833H7.72628V0Z" transform="translate(2.24609 46.5889)" fill="#1E1D25"/>
<path d="M23.2687 0H-2.74171e-06V36.9838H23.2687V0Z" transform="translate(81.4844 58.3481)" fill="#1E1D25"/>
<path d="M11.2301 0H0V15.8887H11.2301V0Z" transform="translate(87.5039 42.4595)" fill="#1E1D25"/>
<path d="M4.85138 0H0V9.24596H4.85138V0Z" transform="translate(52.2871 40.8438)" fill="#1E1D25"/>
<path d="M14.2846 0H0V45.2424H14.2846V0Z" transform="translate(47.5254 50.1797)" fill="#1E1D25"/>
<path d="M25.5147 11.8492H-6.85428e-07V3.42432e-07H25.5147V11.8492ZM2.69521 9.15619H22.8195V2.693H2.69521V9.15619Z" transform="translate(15.9922 10.8618)" fill="#1E1D25"/>
<path d="M22.3703 44.614H19.6751V2.693H2.69522V44.614H2.74171e-06V0H22.3703V44.614Z" transform="translate(60.4629 50.7183)" fill="#1E1D25"/>
<path d="M14.8237 21.9031H0V-1.36973e-06H14.8237V21.9031ZM2.69521 19.2101H12.1285V2.693H2.69521V19.2101Z" transform="translate(64.2363 31.5081)" fill="#1E1D25"/>
<path d="M2.69522 0H2.74171e-06V15.8887H2.69522V0Z" transform="translate(70.3457 16.9658)" fill="#1E1D25"/>
<path d="M10.4215 9.06643H7.72628V2.693H2.69521V9.06643H6.85428e-07V0H10.4215V9.06643Z" transform="translate(23.5391 3.14185)" fill="#1E1D25"/>
<path d="M2.69521 0H0V3.85996H2.69521V0Z" transform="translate(17.8789 29.4434)" fill="#1E1D25"/>
<path d="M2.69521 0H0V3.85996H2.69521V0Z" transform="translate(27.4023 29.4434)" fill="#1E1D25"/>
<path d="M2.69521 0H0V3.85996H2.69521V0Z" transform="translate(36.9258 29.4434)" fill="#1E1D25"/>
<path d="M2.69521 0H0V3.85996H2.69521V0Z" transform="translate(17.8789 40.2153)" fill="#1E1D25"/>
<path d="M2.69521 0H0V3.85996H2.69521V0Z" transform="translate(27.4023 40.2153)" fill="#1E1D25"/>
<path d="M2.69521 0H0V3.85996H2.69521V0Z" transform="translate(36.9258 40.2153)" fill="#1E1D25"/>
<path d="M2.69521 0H0V3.85996H2.69521V0Z" transform="translate(17.8789 50.9873)" fill="#1E1D25"/>
<path d="M2.69521 0H0V3.85996H2.69521V0Z" transform="translate(27.4023 50.9873)" fill="#1E1D25"/>
<path d="M2.69521 0H0V3.85996H2.69521V0Z" transform="translate(36.9258 50.9873)" fill="#1E1D25"/>
<path d="M2.69521 0H0V3.85996H2.69521V0Z" transform="translate(17.8789 61.8491)" fill="#1E1D25"/>
<path d="M2.69521 0H0V3.85996H2.69521V0Z" transform="translate(27.4023 61.8491)" fill="#1E1D25"/>
<path d="M2.69521 0H0V3.85996H2.69521V0Z" transform="translate(36.9258 61.8491)" fill="#1E1D25"/>
<path d="M2.69521 0H0V3.85996H2.69521V0Z" transform="translate(17.8789 72.6211)" fill="#1E1D25"/>
<path d="M2.69521 0H0V3.85996H2.69521V0Z" transform="translate(27.4023 72.6211)" fill="#1E1D25"/>
<path d="M2.69521 0H0V3.85996H2.69521V0Z" transform="translate(36.9258 72.6211)" fill="#1E1D25"/>
<path d="M2.69521 0H0V3.85997H2.69521V0Z" transform="translate(17.8789 83.4829)" fill="#1E1D25"/>
<path d="M2.69521 0H0V3.85997H2.69521V0Z" transform="translate(27.4023 83.4829)" fill="#1E1D25"/>
<path d="M2.69521 0H0V3.85997H2.69521V0Z" transform="translate(36.9258 83.4829)" fill="#1E1D25"/>
<path d="M40.2485 75.3142H37.5533V2.693H2.69521V75.3142H3.42714e-07V-6.84865e-07H40.2485V75.3142Z" transform="translate(8.625 20.0181)" fill="#1E1D25"/>
<path d="M102.508 -2.73946e-06H0V2.693H102.508V-2.73946e-06Z" transform="translate(2.24609 93.9856)" fill="#1E1D25"/>
<path d="M7.72628 0H0V48.833H7.72628V0Z" transform="translate(2.24609 46.5889)" fill="#FBC129"/>
<path d="M23.2687 0H-2.74171e-06V36.9838H23.2687V0Z" transform="translate(81.4844 58.3481)" fill="#FBC129"/>
<path d="M11.2301 0H0V15.8887H11.2301V0Z" transform="translate(87.5039 42.4595)" fill="#FBC129"/>
<path d="M4.85138 0H0V9.24596H4.85138V0Z" transform="translate(52.2871 40.8438)" fill="#FBC129"/>
<path d="M14.2846 0H0V45.2424H14.2846V0Z" transform="translate(47.5254 50.1797)" fill="#FBC129"/>
<path d="M25.5147 11.8492H-6.85428e-07V3.42432e-07H25.5147V11.8492ZM2.69521 9.15619H22.8195V2.693H2.69521V9.15619Z" transform="translate(15.9922 10.8618)" fill="#1E1D25"/>
<path d="M22.3703 44.614H19.6751V2.693H2.69522V44.614H2.74171e-06V0H22.3703V44.614Z" transform="translate(60.4629 50.7183)" fill="#1E1D25"/>
<path d="M14.8237 21.9031H0V-1.36973e-06H14.8237V21.9031ZM2.69521 19.2101H12.1285V2.693H2.69521V19.2101Z" transform="translate(64.2363 31.5081)" fill="#1E1D25"/>
<path d="M2.69522 0H2.74171e-06V15.8887H2.69522V0Z" transform="translate(70.3457 16.9658)" fill="#1E1D25"/>
<path d="M10.4215 9.06643H7.72628V2.693H2.69521V9.06643H6.85428e-07V0H10.4215V9.06643Z" transform="translate(23.5391 3.14185)" fill="#1E1D25"/>
<path d="M2.69521 0H0V3.85996H2.69521V0Z" transform="translate(17.8789 29.4434)" fill="#1E1D25"/>
<path d="M2.69521 0H0V3.85996H2.69521V0Z" transform="translate(27.4023 29.4434)" fill="#1E1D25"/>
<path d="M2.69521 0H0V3.85996H2.69521V0Z" transform="translate(36.9258 29.4434)" fill="#1E1D25"/>
<path d="M2.69521 0H0V3.85996H2.69521V0Z" transform="translate(17.8789 40.2153)" fill="#1E1D25"/>
<path d="M2.69521 0H0V3.85996H2.69521V0Z" transform="translate(27.4023 40.2153)" fill="#1E1D25"/>
<path d="M2.69521 0H0V3.85996H2.69521V0Z" transform="translate(36.9258 40.2153)" fill="#1E1D25"/>
<path d="M2.69521 0H0V3.85996H2.69521V0Z" transform="translate(17.8789 50.9873)" fill="#1E1D25"/>
<path d="M2.69521 0H0V3.85996H2.69521V0Z" transform="translate(27.4023 50.9873)" fill="#1E1D25"/>
<path d="M2.69521 0H0V3.85996H2.69521V0Z" transform="translate(36.9258 50.9873)" fill="#1E1D25"/>
<path d="M2.69521 0H0V3.85996H2.69521V0Z" transform="translate(17.8789 61.8491)" fill="#1E1D25"/>
<path d="M2.69521 0H0V3.85996H2.69521V0Z" transform="translate(27.4023 61.8491)" fill="#1E1D25"/>
<path d="M2.69521 0H0V3.85996H2.69521V0Z" transform="translate(36.9258 61.8491)" fill="#1E1D25"/>
<path d="M2.69521 0H0V3.85996H2.69521V0Z" transform="translate(17.8789 72.6211)" fill="#1E1D25"/>
<path d="M2.69521 0H0V3.85996H2.69521V0Z" transform="translate(27.4023 72.6211)" fill="#1E1D25"/>
<path d="M2.69521 0H0V3.85996H2.69521V0Z" transform="translate(36.9258 72.6211)" fill="#1E1D25"/>
<path d="M2.69521 0H0V3.85997H2.69521V0Z" transform="translate(17.8789 83.4829)" fill="#1E1D25"/>
<path d="M2.69521 0H0V3.85997H2.69521V0Z" transform="translate(27.4023 83.4829)" fill="#1E1D25"/>
<path d="M2.69521 0H0V3.85997H2.69521V0Z" transform="translate(36.9258 83.4829)" fill="#1E1D25"/>
<path d="M40.2485 75.3142H37.5533V2.693H2.69521V75.3142H3.42714e-07V-6.84865e-07H40.2485V75.3142Z" transform="translate(8.625 20.0181)" fill="#1E1D25"/>
<path d="M104.754 4.48833H2.24601C0.988245 4.48833 0 3.5009 0 2.24417C0 0.987435 0.988245 2.73946e-06 2.24601 2.73946e-06H104.754C106.012 2.73946e-06 107 0.987435 107 2.24417C107 3.5009 106.012 4.48833 104.754 4.48833Z" transform="translate(0 95.4219)" fill="#1E1D25"/>
<path d="M18.597 4.48833C19.5852 4.48833 20.3938 5.29623 20.3938 6.28366V23.6984H22.2804C23.2687 23.6984 24.0772 24.5063 24.0772 25.4937V66.9659H4.49203V25.4937C4.49203 24.5063 5.30059 23.6984 6.28884 23.6984H8.26532V6.28366C8.26532 5.29623 9.07389 4.48833 10.0621 4.48833H18.597ZM18.597 3.42432e-07H10.0621C6.55835 3.42432e-07 3.7733 2.87253 3.7733 6.28366V19.7487C1.61713 20.7361 -6.85428e-07 22.9803 -6.85428e-07 25.4937V66.9659V71.4542H4.49203H24.1671H28.6591V66.9659V25.4937C28.6591 22.8905 27.1318 20.7361 24.8858 19.7487V6.28366C24.8858 2.87253 22.1008 3.42432e-07 18.597 3.42432e-07Z" transform="translate(57.3184 28.3662)" fill="#1E1D25"/>
<path d="M25.4249 4.48833C26.4131 4.48833 27.3115 5.29623 27.3115 6.37343V12.2083H33.0613C34.0495 12.2083 34.9479 13.0162 34.9479 14.0934V21.4542H40.5181C41.5063 21.4542 42.4047 22.2621 42.4047 23.3393V95.5117H4.67171V23.1598C4.67171 22.1723 5.48027 21.2747 6.55835 21.2747H12.1285V13.9138C12.1285 12.9264 12.937 12.0287 14.0151 12.0287H19.7649V6.37343C19.7649 5.386 20.5735 4.48833 21.6516 4.48833H25.4249ZM25.4249 0H21.4719C17.9681 0 15.0932 2.87253 15.0932 6.37343V7.71993H13.8354C10.3317 7.71993 7.45676 10.5925 7.45676 14.0934V16.9659H6.37867C2.8749 16.9659 8.56786e-08 19.8384 8.56786e-08 23.3393V95.5117V100H4.49202H42.1352H46.6272V95.5117V23.1598C46.6272 19.6589 43.7523 16.7864 40.2485 16.7864H39.1704V13.9138C39.1704 10.4129 36.2956 7.54039 32.7918 7.54039H31.534V6.37343C31.8035 2.87253 28.9286 0 25.4249 0Z" transform="translate(5.30078)" fill="#1E1D25"/>
</svg>
