<svg width="113" height="100" viewBox="0 0 113 100" fill="none" xmlns="http://www.w3.org/2000/svg">
<path d="M95.1357 49.9576H5.39299C2.4437 49.9576 8.03618e-08 47.4979 8.03618e-08 44.5293V1.27226C8.03618e-08 0.593723 0.589858 0 1.26398 0C1.93811 0 2.52796 0.593723 2.52796 1.27226V44.5293C2.52796 46.1408 3.79195 47.4131 5.39299 47.4131H95.1357C96.7368 47.4131 98.0007 46.1408 98.0007 44.5293V1.27226C98.0007 0.593723 98.5906 0 99.2647 0C99.9388 0 100.529 0.593723 100.529 1.27226V44.5293C100.613 47.4979 98.1693 49.9576 95.1357 49.9576Z" transform="translate(6.23633 47.074)" fill="#1E1D25"/>
<path d="M59.66 36.9805C58.9858 36.9805 58.396 36.3868 58.396 35.7082C58.396 35.0297 58.9016 34.436 59.66 34.436C74.4907 34.0967 89.4899 32.7396 104.152 30.1951C104.405 30.1103 104.658 29.8558 104.658 29.6014V5.42833C104.658 3.81679 103.394 2.54453 101.793 2.54453H5.39299C3.79195 2.54453 2.52796 3.81679 2.52796 5.42833V29.6862C2.52796 29.9406 2.69649 30.1951 3.03356 30.2799C17.6957 32.7396 32.695 34.1815 47.5257 34.5208C48.1998 34.5208 48.7897 35.1145 48.7897 35.793C48.7897 36.4716 48.1998 37.0653 47.5257 37.0653C32.5265 36.726 17.443 35.369 2.61223 32.8244C1.09545 32.57 0 31.2977 0 29.771V5.42833C0 2.45971 2.4437 0 5.39299 0H101.708C104.658 0 107.101 2.45971 107.101 5.42833V29.6862C107.101 31.2129 106.006 32.4852 104.489 32.7396C89.7427 35.2841 74.6592 36.726 59.66 36.9805Z" transform="translate(2.94922 16.5396)" fill="#1E1D25"/>
<path d="M12.05 14.7583H2.61223C1.17972 14.7583 1.28579e-06 13.5708 1.28579e-06 12.1289V2.62935C1.28579e-06 1.18745 1.17972 0 2.61223 0H12.05C13.4825 0 14.6622 1.18745 14.6622 2.62935V12.1289C14.6622 13.5708 13.4825 14.7583 12.05 14.7583ZM2.61223 2.54453C2.52796 2.54453 2.52796 2.54453 2.61223 2.54453L2.52797 12.1289C2.52797 12.2137 2.52796 12.2137 2.61223 12.2137H12.05C12.1342 12.2137 12.1342 12.2137 12.1342 12.1289V2.62935C12.1342 2.54453 12.1342 2.54453 12.05 2.54453H2.61223Z" transform="translate(49.2109 44.9536)" fill="#1E1D25"/>
<path d="M5.14019 2.54453H1.26398C0.589861 2.54453 -6.42895e-07 1.95081 -6.42895e-07 1.27227C-6.42895e-07 0.593724 0.589861 6.47107e-07 1.26398 6.47107e-07H5.14019C5.81432 6.47107e-07 6.40418 0.593724 6.40418 1.27227C6.40418 1.95081 5.81432 2.54453 5.14019 2.54453Z" transform="translate(53.3398 51.0603)" fill="#1E1D25"/>
<path d="M13.3982 2.54453H1.26398C0.58986 2.54453 1.28579e-06 1.95081 1.28579e-06 1.27226C1.28579e-06 0.593723 0.58986 0 1.26398 0H13.3982C14.0723 0 14.6622 0.593723 14.6622 1.27226C14.6622 1.95081 14.0723 2.54453 13.3982 2.54453Z" transform="translate(49.2109 62.3411)" fill="#1E1D25"/>
<path d="M46.7673 16.1154C46.0932 16.1154 45.5033 15.5216 45.5033 14.8431V6.10687C45.5033 4.15606 43.9023 2.54453 41.9642 2.54453H6.06711C4.12901 2.54453 2.52796 4.15606 2.52796 6.10687V14.8431C2.52796 15.5216 1.9381 16.1154 1.26398 16.1154C0.589857 16.1154 -1.28579e-06 15.5216 -1.28579e-06 14.8431V6.10687C-1.28579e-06 2.71416 2.78076 0 6.06711 0H41.9642C45.3348 0 48.0313 2.79898 48.0313 6.10687V14.8431C48.0313 15.5216 47.5257 16.1154 46.7673 16.1154Z" transform="translate(32.5273 2.96875)" fill="#1E1D25"/>
<path d="M32.6107 9.58439C31.9366 9.58439 31.3468 8.99067 31.3468 8.31213V2.45971H2.52796V8.31213C2.52796 8.99067 1.93811 9.58439 1.26398 9.58439C0.589858 9.58439 0 8.99067 0 8.31213V1.78117C0 0.763359 0.842655 -1.61777e-07 1.85384 -1.61777e-07H32.0209C33.0321 -1.61777e-07 33.8747 0.848176 33.8747 1.78117V8.31213C33.8747 8.99067 33.2849 9.58439 32.6107 9.58439Z" transform="translate(39.6055 9.49976)" fill="#1E1D25"/>
<path d="M-6.42895e-07 -2.58843e-06C-6.42895e-07 3.30789 -6.42895e-07 6.61578 -6.42895e-07 10.0085C27.7233 10.0085 55.3624 10.0085 83.0858 10.0085C83.0858 6.70059 83.0858 3.3927 83.0858 -2.58843e-06C55.4467 2.20526 27.6391 2.20526 -6.42895e-07 -2.58843e-06Z" transform="translate(15 80.3225)" fill="#FBC129"/>
<path d="M74.4907 4.24088C77.1872 4.24088 79.2938 6.44614 79.2938 9.07549V17.8117H104.658C106.933 17.8117 108.787 19.6777 108.787 21.9678V46.2256C108.787 47.1586 108.113 47.922 107.27 48.0916C106.68 48.1764 106.09 48.2612 105.416 48.3461H105.5V91.6031C105.5 93.8931 103.647 95.7591 101.371 95.7591H11.6286C9.35347 95.7591 7.49963 93.8931 7.49963 91.6031V48.3461H7.58389C6.99403 48.2612 6.40418 48.1764 5.73005 48.0916C4.8874 47.922 4.21327 47.0738 4.21327 46.2256C4.21327 38.1679 4.21327 30.0254 4.21327 21.9678C4.21327 19.5929 6.06711 17.8117 8.34228 17.8117H33.7062V9.07549C33.7062 6.44614 35.8971 4.24088 38.5936 4.24088H74.4907ZM74.4907 0H38.5936C33.5377 0 29.4929 4.07125 29.4929 9.07549V13.5708H8.34228C3.70768 13.5708 0 17.3028 0 21.9678V46.2256C0 48.6005 1.34825 50.6361 3.28635 51.6539V91.6031C3.28635 96.268 6.99403 100 11.6286 100H101.371C106.006 100 109.714 96.268 109.714 91.6031V51.6539C111.652 50.6361 113 48.6005 113 46.2256V21.9678C113 17.3028 109.292 13.5708 104.658 13.5708H83.5071V9.16031C83.5071 4.07125 79.4623 0 74.4907 0Z" fill="#1E1D25"/>
</svg>
