<svg width="60" height="100" viewBox="0 0 60 100" fill="none" xmlns="http://www.w3.org/2000/svg">
<path d="M21.3316 0H0V7.32284H21.3316V0Z" transform="translate(19.7344 50.0786)" fill="#FBC129"/>
<path d="M40.1864 41.1024H9.58722C6.71105 41.1024 4.31425 39.1339 3.83489 36.378L7.61924e-08 15.4331C7.61924e-08 6.92913 7.03063 0 15.6591 0H34.1944C42.8229 0 49.8535 6.92913 49.8535 15.4331V15.6693L46.0985 36.4567C45.4594 39.1339 43.0626 41.1024 40.1864 41.1024ZM2.3968 15.2756L6.1518 35.9055C6.47137 37.5591 7.90945 38.7402 9.58722 38.7402H40.2663C41.9441 38.7402 43.3822 37.5591 43.7017 35.9055L47.4567 15.2756C47.3768 8.11024 41.4647 2.3622 34.1944 2.3622H15.6591C8.38881 2.3622 2.4767 8.18898 2.3968 15.2756Z" transform="translate(5.11328 2.75586)" fill="#1E1D23"/>
<path d="M2.3968 0H0V14.7244H2.3968V0Z" transform="translate(18.5352 42.6772)" fill="#1E1D23"/>
<path d="M2.39681 0H0V14.7244H2.39681V0Z" transform="translate(39.8672 42.6772)" fill="#1E1D23"/>
<path d="M48.8948 11.8898H5.51265C2.4767 11.8898 0 9.44882 0 6.45669V5.43307C0 2.44095 2.4767 1.20148e-06 5.51265 1.20148e-06H48.8948C51.9308 1.20148e-06 54.4075 2.44095 54.4075 5.43307V6.45669C54.4075 9.44882 51.9308 11.8898 48.8948 11.8898ZM5.51265 2.36221C3.75499 2.36221 2.3968 3.77953 2.3968 5.43307V6.45669C2.3968 8.18898 3.83489 9.52756 5.51265 9.52756H48.8948C50.6525 9.52756 52.0107 8.11024 52.0107 6.45669V5.43307C52.0107 3.70079 50.5726 2.36221 48.8948 2.36221H5.51265Z" transform="translate(2.79688 56.2205)" fill="#1E1D23"/>
<path d="M2.3968 0H0V23.622H2.3968V0Z" transform="translate(28.7617 66.9292)" fill="#1E1D23"/>
<path d="M39.7869 12.9921H37.3901V10.9449C37.3901 6.22047 33.4754 2.3622 28.6818 2.3622H11.1052C6.31158 2.3622 2.3968 6.22047 2.3968 10.9449V12.9921H-1.52385e-07V10.9449C-1.52385e-07 4.88189 4.9534 0 11.1052 0H28.6818C34.8336 0 39.7869 4.88189 39.7869 10.9449V12.9921Z" transform="translate(10.1465 77.5591)" fill="#1E1D23"/>
<path d="M5.35286 10.5512C2.3968 10.5512 -6.09539e-07 8.18898 -6.09539e-07 5.27559C-6.09539e-07 2.36221 2.3968 -1.20148e-06 5.35286 -1.20148e-06C8.30892 -1.20148e-06 10.7057 2.36221 10.7057 5.27559C10.7856 8.18898 8.38881 10.5512 5.35286 10.5512ZM5.35286 2.28346C3.6751 2.28346 2.3968 3.62205 2.3968 5.19685C2.3968 6.85039 3.75499 8.11024 5.35286 8.11024C7.03063 8.11024 8.30892 6.77165 8.30892 5.19685C8.38881 3.62205 7.03063 2.28346 5.35286 2.28346Z" transform="translate(24.6074 89.4487)" fill="#1E1D23"/>
<path d="M5.35286 10.5512C2.3968 10.5512 -6.09539e-07 8.18898 -6.09539e-07 5.27559C-6.09539e-07 2.36221 2.3968 -1.20148e-06 5.35286 -1.20148e-06C8.30892 -1.20148e-06 10.7057 2.36221 10.7057 5.27559C10.7057 8.18898 8.30892 10.5512 5.35286 10.5512ZM5.35286 2.28346C3.6751 2.28346 2.3968 3.62205 2.3968 5.19685C2.3968 6.85039 3.75499 8.11024 5.35286 8.11024C7.03063 8.11024 8.30892 6.77165 8.30892 5.19685C8.30892 3.62205 6.95073 2.28346 5.35286 2.28346Z" transform="translate(43.3828 89.4487)" fill="#1E1D23"/>
<path d="M5.35286 10.5512C2.3968 10.5512 7.61924e-08 8.18898 7.61924e-08 5.27559C7.61924e-08 2.36221 2.3968 -1.20148e-06 5.35286 -1.20148e-06C8.30892 -1.20148e-06 10.7057 2.36221 10.7057 5.27559C10.7856 8.18898 8.30892 10.5512 5.35286 10.5512ZM5.35286 2.28346C3.6751 2.28346 2.3968 3.62205 2.3968 5.19685C2.3968 6.85039 3.75499 8.11024 5.35286 8.11024C7.03063 8.11024 8.30892 6.77165 8.30892 5.19685C8.38881 3.62205 7.03063 2.28346 5.35286 2.28346Z" transform="translate(5.91211 89.4487)" fill="#1E1D23"/>
<path d="M1.1984 11.1024C0.559255 11.1024 6.09539e-07 10.5512 6.09539e-07 9.92126V1.1811C6.09539e-07 0.551181 0.559255 0 1.1984 0C1.83755 0 2.3968 0.551181 2.3968 1.1811V9.92126C2.3968 10.6299 1.83755 11.1024 1.1984 11.1024Z" transform="translate(18.5352 14.9607)" fill="#1E1D23"/>
<path d="M1.1984 11.1024C0.559256 11.1024 1.21908e-06 10.5512 1.21908e-06 9.92126V1.1811C1.21908e-06 0.551181 0.559256 0 1.1984 0C1.83755 0 2.39681 0.551181 2.39681 1.1811V9.92126C2.39681 10.6299 1.83755 11.1024 1.1984 11.1024Z" transform="translate(39.8672 14.9607)" fill="#1E1D23"/>
<path d="M1.1984 11.1024C0.559254 11.1024 0 10.5512 0 9.92126V1.1811C0 0.551181 0.559254 0 1.1984 0C1.83755 0 2.3968 0.551181 2.3968 1.1811V9.92126C2.3968 10.6299 1.91744 11.1024 1.1984 11.1024Z" transform="translate(28.7617 14.9607)" fill="#1E1D23"/>
<path d="M36.9108 3.93701C44.9001 3.93701 51.3715 10.315 51.3715 18.189L47.6165 38.9764C47.217 41.1811 45.2996 42.7559 43.0626 42.7559H12.3835C10.1465 42.7559 8.22903 41.1811 7.82956 38.9764L3.99467 18.189C3.99467 10.315 10.466 3.93701 18.4554 3.93701H36.9108ZM36.9108 0H18.4554C8.22903 0 7.61924e-08 8.11024 7.61924e-08 18.189V18.5039L0.0798935 18.8976L3.83489 39.685C4.55393 43.7795 8.14913 46.6929 12.3835 46.6929H43.0626C47.217 46.6929 50.8123 43.7795 51.6112 39.685L55.2863 18.8976L55.3662 18.5827V18.2677C55.3662 8.11024 47.1371 0 36.9108 0Z" transform="translate(2.31641)" fill="#1E1D23"/>
<path d="M51.6911 3.93701C54.0879 3.93701 56.0053 5.82677 56.0053 8.18898V9.2126C56.0053 11.5748 54.0879 13.4646 51.6911 13.4646H8.30892C5.91212 13.4646 3.99467 11.5748 3.99467 9.2126V8.18898C3.99467 5.82677 5.91212 3.93701 8.30892 3.93701H51.6911ZM51.6911 1.20148e-06H8.30892C3.75499 1.20148e-06 0 3.70079 0 8.18898V9.2126C0 13.7008 3.75499 17.4016 8.30892 17.4016H51.6911C56.245 17.4016 60 13.7008 60 9.2126V8.18898C60 3.70079 56.245 1.20148e-06 51.6911 1.20148e-06Z" transform="translate(0 53.4646)" fill="#1E1D23"/>
</svg>
