<svg width="235" height="46" viewBox="0 0 235 46" fill="none" xmlns="http://www.w3.org/2000/svg">
<path d="M18.5056 0.561989C18.3939 0.224796 18.0587 8.57526e-07 17.6119 8.57526e-07H13.5903C13.2552 8.57526e-07 12.9201 0.224796 12.6966 0.561989L0.0733739 34.7309C-0.0383363 34.9557 -0.0383295 35.2929 0.185091 35.5177C0.408511 35.7425 0.631928 35.8549 0.967059 35.8549H4.98863C5.32376 35.8549 5.65889 35.6301 5.88231 35.2929L9.79217 24.8399H21.8569L25.7667 35.2929C25.8784 35.6301 26.2136 35.8549 26.6604 35.8549H30.682C31.0171 35.8549 31.2405 35.7425 31.464 35.5177C31.6874 35.2929 31.6874 34.9557 31.5757 34.7309L18.5056 0.561989ZM19.8461 19.6696H11.4678L15.6011 7.98024L19.8461 19.6696Z" transform="translate(0 1.04102)" fill="#FFC126"/>
<path d="M12.1764 -4.28763e-07C9.60708 -4.28763e-07 7.26116 1.01158 5.5855 2.58515V1.57357C5.5855 1.12398 5.13868 0.674386 4.69184 0.674386H0.893678C0.446837 0.674386 -6.81825e-06 1.12398 -6.81825e-06 1.57357V26.9754C-6.81825e-06 27.425 0.446837 27.8746 0.893678 27.8746H4.69184C5.13868 27.8746 5.5855 27.425 5.5855 26.9754V11.577C5.5855 7.86784 7.81972 5.39509 11.2827 5.39509C14.4106 5.39509 16.3097 7.64304 16.3097 11.015V27.0878C16.3097 27.5374 16.7565 27.987 17.2034 27.987H21.0015C21.4484 27.987 21.8952 27.5374 21.8952 27.0878V11.2398C22.0069 4.38351 18.2088 -4.28763e-07 12.1764 -4.28763e-07Z" transform="translate(34.3691 9.13379)" fill="#FFC126"/>
<path d="M25.0965 0H20.9632C20.6281 0 20.2929 0.224795 20.0695 0.561988L13.1435 18.7704L5.99402 0.561988C5.88231 0.224795 5.54717 0 5.10033 0H0.967056C0.631925 0 0.408508 0.112397 0.185088 0.44959C-0.0383329 0.786783 -0.0383397 1.01158 0.0733705 1.34877L10.239 26.1887L6.77598 34.8433C6.66427 35.1805 6.66428 35.4053 6.8877 35.7425C7.11112 35.9673 7.33454 36.1921 7.66967 36.1921H11.4678C11.803 36.1921 12.1381 35.9673 12.3615 35.6301L25.9902 1.23638C26.1019 0.899182 26.1019 0.674385 25.8784 0.337192C25.655 0.112397 25.4316 0 25.0965 0Z" transform="translate(58.3125 9.80762)" fill="#FFC126"/>
<path d="M13.2935 0.112397C13.2935 0.112397 12.3998 -8.57526e-07 11.6179 -8.57526e-07C6.03236 -8.57526e-07 2.79275 3.37193 2.79275 9.32901V9.7786H0.893682C0.446841 9.7786 -3.40913e-06 10.2282 -3.40913e-06 10.6778V13.9373C-3.40913e-06 14.3869 0.446841 14.8365 0.893682 14.8365H2.79275V36.0797C2.79275 36.5293 3.2396 36.9788 3.68644 36.9788H7.5963C8.04314 36.9788 8.48998 36.5293 8.48998 36.0797V14.8365H12.9584C13.4052 14.8365 13.8521 14.3869 13.8521 13.9373V10.6778C13.8521 10.2282 13.4052 9.7786 12.9584 9.7786H8.48998V9.32901C8.48998 5.61988 10.2773 5.17029 11.953 5.17029C12.5115 5.17029 13.0701 5.28269 13.0701 5.28269C13.2935 5.28269 13.6287 5.28269 13.8521 5.05789C14.0755 4.8331 14.1872 4.60831 14.1872 4.38351V1.01158C14.0755 0.561989 13.7404 0.112397 13.2935 0.112397Z" transform="translate(86.6484 0.0292969)" fill="#FFC126"/>
<path d="M14.0755 -4.28763e-07C6.03236 -4.28763e-07 -3.40913e-06 6.18187 -3.40913e-06 14.2745C-3.40913e-06 22.5919 5.92065 28.549 14.0755 28.549C22.1186 28.549 28.151 22.3671 28.151 14.2745C28.151 6.18187 22.1186 -4.28763e-07 14.0755 -4.28763e-07ZM13.9638 23.1539C9.04852 23.1539 5.58551 19.4448 5.58551 14.2745C5.58551 9.10421 9.04852 5.39509 13.9638 5.39509C18.879 5.39509 22.342 9.10421 22.342 14.2745C22.4538 19.4448 18.879 23.1539 13.9638 23.1539Z" transform="translate(101.73 9.13379)" fill="#FFC126"/>
<path d="M12.1764 -4.28763e-07C9.27195 -4.28763e-07 7.03775 1.12398 5.58552 2.69754V1.57357C5.58552 1.12398 5.13867 0.674386 4.69183 0.674386H0.893675C0.446834 0.674386 6.81825e-06 1.12398 6.81825e-06 1.57357V26.9754C6.81825e-06 27.425 0.446834 27.8746 0.893675 27.8746H4.69183C5.13867 27.8746 5.58552 27.425 5.58552 26.9754V14.8365C5.58552 8.65462 7.708 5.73228 12.1764 5.73228C12.6233 5.73228 13.0701 5.28269 13.0701 4.8331V1.01158C13.0701 0.44959 12.6233 -4.28763e-07 12.1764 -4.28763e-07Z" transform="translate(134.014 9.13379)" fill="#FFC126"/>
<path d="M13.046 15.7357C9.58303 14.0497 6.56683 12.5885 6.56683 9.6662C6.56683 7.08106 8.46593 5.39509 11.3704 5.39509C14.7217 5.39509 16.2856 7.75544 16.9559 9.21661C17.1793 9.6662 17.6262 9.891 18.073 9.6662L21.4243 8.31743C21.8712 8.09263 22.0946 7.64304 21.9829 7.19345C21.536 5.95708 19.0784 4.28763e-07 11.4821 4.28763e-07C5.22631 4.28763e-07 0.869624 3.93392 0.869624 9.6662C0.869624 16.0729 5.78488 18.4332 10.1416 20.4564C13.7163 22.1423 16.8442 23.6035 16.8442 27.0878C16.8442 30.0102 14.8334 31.8085 11.5938 31.8085C8.3542 31.8085 6.12 30.235 5.0029 27.0878C4.89119 26.8631 4.77948 26.6383 4.55606 26.5259C4.33264 26.4135 4.10922 26.4135 3.8858 26.5259L0.53449 27.987C0.0876489 28.2118 -0.135765 28.6614 0.0876557 29.111C0.869627 31.5838 3.66237 37.316 11.5938 37.316C18.1847 37.316 22.7648 33.0449 22.7648 26.863C22.5414 20.344 17.5145 17.8712 13.046 15.7357Z" transform="translate(149.008 0.367188)" fill="#FFC126"/>
<path d="M14.0755 -4.28763e-07C6.03234 -4.28763e-07 1.36365e-05 6.18187 1.36365e-05 14.2745C1.36365e-05 22.5919 5.92063 28.549 14.0755 28.549C22.1186 28.549 28.151 22.3671 28.151 14.2745C28.151 6.18187 22.1186 -4.28763e-07 14.0755 -4.28763e-07ZM14.0755 23.1539C9.16022 23.1539 5.69721 19.4448 5.69721 14.2745C5.69721 9.10421 9.16022 5.39509 14.0755 5.39509C18.9907 5.39509 22.4537 9.10421 22.4537 14.2745C22.4537 19.4448 18.9907 23.1539 14.0755 23.1539Z" transform="translate(174.342 9.13379)" fill="#FFC126"/>
<path d="M13.2935 0.112397C13.2935 0.112397 12.3998 -8.57526e-07 11.6179 -8.57526e-07C6.03237 -8.57526e-07 2.79274 3.37193 2.79274 9.32901V9.7786H0.893689C0.446848 9.7786 -1.36365e-05 10.2282 -1.36365e-05 10.6778V13.9373C-1.36365e-05 14.3869 0.446848 14.8365 0.893689 14.8365H2.79274V36.0797C2.79274 36.5293 3.2396 36.9788 3.68644 36.9788H7.5963C8.04314 36.9788 8.48997 36.5293 8.48997 36.0797V14.8365H12.9584C13.4052 14.8365 13.8521 14.3869 13.8521 13.9373V10.6778C13.8521 10.2282 13.4052 9.7786 12.9584 9.7786H8.48997V9.32901C8.48997 5.61988 10.2773 5.17029 11.953 5.17029C12.5115 5.17029 13.0701 5.28269 13.0701 5.28269C13.2935 5.28269 13.6287 5.28269 13.8521 5.05789C14.0755 4.8331 14.1872 4.60831 14.1872 4.38351V1.01158C14.0755 0.561989 13.7404 0.112397 13.2935 0.112397Z" transform="translate(204.615 0.0292969)" fill="#FFC126"/>
<path d="M13.9638 27.6498C13.7404 27.425 13.5169 27.425 13.2935 27.425C13.2935 27.425 12.735 27.425 12.2881 27.425C9.7188 27.425 8.48996 26.9754 8.48996 22.4795V10.3406H13.0701C13.5169 10.3406 13.9638 9.891 13.9638 9.44141V6.18187C13.9638 5.73228 13.5169 5.28269 13.0701 5.28269H8.48996V0.899182C8.48996 0.449591 8.04314 -8.57526e-07 7.5963 -8.57526e-07H3.79815C3.35131 -8.57526e-07 2.90445 0.449591 2.90445 0.899182V5.28269H0.893682C0.446841 5.28269 1.36365e-05 5.73228 1.36365e-05 6.18187V9.44141C1.36365e-05 9.891 0.446841 10.3406 0.893682 10.3406H2.90445V22.8167C2.90445 31.0218 7.37288 32.8201 11.0593 32.8201C12.3998 32.8201 13.5169 32.7077 13.5169 32.7077C13.9638 32.5953 14.2989 32.2581 14.2989 31.8085V28.4366C14.2989 28.0994 14.1872 27.8746 13.9638 27.6498Z" transform="translate(220.701 4.52539)" fill="#FFC126"/>
</svg>
