<svg width="32" height="32" viewBox="0 0 32 32" fill="none" xmlns="http://www.w3.org/2000/svg">
<path d="M30.5 13.2L28.1 12.8C27.8 11.8 27.4 10.8 26.9 9.8L28.3 7.8C28.8 7.1 28.8 6.1 28.1 5.4L26.6 4C26 3.3 25 3.2 24.2 3.8L22.2 5.2C21.3 4.7 20.3 4.2 19.2 4L18.8 1.6C18.7 0.6 17.9 0 17 0H15C14.1 0 13.3 0.6 13.2 1.5L12.8 3.9C11.8 4.2 10.8 4.6 9.8 5.1L7.8 3.7C7 3.2 6 3.3 5.4 4L4 5.4C3.3 6 3.3 7 3.8 7.8L5.2 9.8C4.7 10.7 4.2 11.7 4 12.8L1.6 13.2C0.6 13.3 0 14.1 0 15V17C0 17.9 0.6 18.7 1.5 18.8L3.9 19.2C4.2 20.2 4.6 21.2 5.1 22.2L3.7 24.2C3.3 25 3.3 26 4 26.6L5.4 28C6 28.7 7 28.8 7.8 28.2L9.8 26.8C10.7 27.3 11.7 27.8 12.8 28L13.2 30.4C13.4 31.3 14.1 31.9 15 31.9H17C17.9 31.9 18.7 31.3 18.8 30.4L19.2 28C20.2 27.7 21.2 27.3 22.2 26.8L24.2 28.2C24.9 28.7 25.9 28.6 26.6 28L28 26.6C28.6 26 28.7 25 28.2 24.2L26.8 22.2C27.3 21.3 27.7 20.3 28 19.2L30.4 18.8C31.3 18.6 31.9 17.9 31.9 17V15C32 14.1 31.3 13.3 30.5 13.2ZM16 22.8C12.2 22.8 9.2 19.7 9.2 16C9.2 12.2 12.3 9.2 16 9.2C19.8 9.2 22.8 12.3 22.8 16.1C22.8 19.8 19.8 22.8 16 22.8Z" fill="white"/>
</svg>
