<svg width="82" height="98" viewBox="0 0 82 98" fill="none" xmlns="http://www.w3.org/2000/svg">
<path d="M41 5.45422C58.319 20.7612 76.6983 41.7864 76.6983 55.5099C76.6983 76.0072 60.7047 92.7217 41 92.7217C21.2953 92.7217 5.30172 76.0072 5.30172 55.5099C5.30172 41.7864 23.681 20.7612 41 5.45422ZM41 0C39.8513 0 38.7909 0.351885 37.819 1.14363C28.2759 9.58887 0 36.0682 0 55.5099C0 78.9982 18.3793 98 41 98C63.6207 98 82 78.9982 82 55.5099C82 36.0682 53.7241 9.58887 44.0927 1.14363C43.2974 0.351885 42.1487 0 41 0Z" fill="black"/>
<path d="M5.8319 41.8523C5.8319 27.9529 24.9181 9.30296 33.1358 2.00135C32.694 1.56149 32.1638 1.20961 31.8103 0.857721C30.4849 -0.285906 28.5409 -0.285906 27.3039 0.857721C20.4116 6.92774 -1.68537e-07 26.0175 -1.68537e-07 40.0929C-1.68537e-07 53.9044 8.83621 65.5166 20.8534 69.3873C11.8405 63.7572 5.8319 53.5525 5.8319 41.8523Z" transform="translate(10.7793 16.4727)" fill="#FBC129"/>
<path d="M28.1875 0C28.1875 16.0987 15.5517 29.1185 1.3483e-06 29.1185" transform="translate(41 56.3018)" stroke="black" stroke-width="3" stroke-miterlimit="10" stroke-linecap="round"/>
</svg>
