<svg width="199" height="45" viewBox="0 0 199 45" fill="none" xmlns="http://www.w3.org/2000/svg">
<path d="M66.8556 42.7316L47.4833 6.06948C45.7111 2.63624 41.25 0 37.4 0H28.8444C24.9944 0 20.5944 2.69755 18.7611 6.06948L0.366667 40.9537C-0.122222 41.8733 -0.122222 42.8542 0.366667 43.6512C0.855556 44.4482 1.71111 44.8774 2.75 44.8774H5.5C7.15 44.8774 8.98333 43.7738 9.71667 42.3025L25.9111 11.5872C26.7056 10.1158 28.7833 8.82834 30.4333 8.82834H35.8111C37.4611 8.82834 39.5389 10.1158 40.3333 11.5872L56.0389 41.3828C56.1611 41.6281 55.9778 41.8733 55.6722 41.8733H53.9611C53.4111 41.8733 52.6167 41.3828 52.3722 40.8924L38.4389 14.4074C37.6444 12.936 35.8722 11.8324 34.2222 11.8324H32.0833C30.4333 11.8324 28.6 12.936 27.8667 14.4074L13.8722 40.8924C13.3833 41.812 13.3833 42.7929 13.8111 43.5899C14.3 44.3869 15.1556 44.8161 16.1944 44.8161H18.9444C20.5944 44.8161 22.4278 43.7125 23.1611 42.2411L32.7556 24.0327C32.8778 23.7875 33.1222 23.7875 33.3056 24.0327L37.2778 31.6349C37.4611 31.9414 37.2778 32.1866 36.9722 32.1866H32.2056C31.4111 32.1866 30.7389 32.861 30.7389 33.658C30.7389 34.455 31.4111 35.1294 32.2056 35.1294H38.0111C39.05 35.1294 39.9667 34.7003 40.3944 33.9033C40.8833 33.1063 40.8833 32.1253 40.3333 31.2057L35.2 21.3965C34.7111 20.4155 33.8556 19.8638 32.9389 19.8638C32.0222 19.8638 31.2278 20.4155 30.6778 21.3965L20.4111 40.8924C20.1667 41.3828 19.3722 41.8733 18.8222 41.8733H17.1111C16.8056 41.8733 16.6222 41.6281 16.8056 41.3828L30.25 15.8787C30.4944 15.3883 31.2889 14.8978 31.8389 14.8978H33.9778C34.5278 14.8978 35.3222 15.3883 35.5667 15.8787L49.5 42.3638C50.2944 43.8351 52.0667 44.9387 53.7167 44.9387H56.4667C57.5056 44.9387 58.4222 44.5095 58.85 43.7125C59.3389 42.9155 59.3389 41.9346 58.85 41.015L42.6556 10.2997C41.3722 7.84741 38.2556 5.94687 35.5056 5.94687H30.1278C27.3778 5.94687 24.2611 7.84741 22.9778 10.2997L6.78333 41.015C6.53889 41.5055 5.74444 41.9959 5.19444 41.9959H3.48333C3.17778 41.9959 3.05556 41.812 3.11667 41.5054L21.0222 7.47956C22.3056 5.02725 25.7278 3.00409 28.4778 3.00409H37.0333C39.7833 3.00409 43.2056 5.02725 44.4889 7.47956L63.8 44.1417C64.0444 44.6322 64.5944 44.9387 65.1444 44.9387C65.3889 44.9387 65.6333 44.8774 65.8167 44.7548C66.9778 44.3869 67.2833 43.4673 66.8556 42.7316Z" fill="#11AD7F"/>
<path d="M2.79624 0.809231C2.42957 0.0735362 1.5129 -0.233003 0.779567 0.196152C0.046234 0.563999 -0.19821 1.48362 0.168456 2.21931L3.10179 7.85964C3.34624 8.3501 3.89623 8.65664 4.44623 8.65664C4.69068 8.65664 4.93513 8.59534 5.11846 8.47272C5.85179 8.10487 6.09624 7.18526 5.72957 6.44956L2.79624 0.809231Z" transform="translate(40.8984 36.3433)" fill="#11AD7F"/>
<path d="M10.1235 0.30654C10.0624 0.122616 9.87903 4.67742e-07 9.63458 4.67742e-07H7.43459C7.25125 4.67742e-07 7.06792 0.122616 6.9457 0.30654L0.0401392 18.9441C-0.0209719 19.0668 -0.0209682 19.2507 0.101254 19.3733C0.223476 19.4959 0.345697 19.5572 0.52903 19.5572H2.72903C2.91236 19.5572 3.0957 19.4346 3.21792 19.2507L5.35681 13.549H11.9568L14.0957 19.2507C14.1568 19.4346 14.3401 19.5572 14.5846 19.5572H16.7846C16.9679 19.5572 17.0901 19.4959 17.2124 19.3733C17.3346 19.2507 17.3346 19.0668 17.2735 18.9441L10.1235 0.30654ZM10.8568 10.7289H6.27348L8.53458 4.35286L10.8568 10.7289Z" transform="translate(69.4434 10.545)" fill="#11AD7F"/>
<path d="M6.66111 -2.33871e-07C5.25556 -2.33871e-07 3.97222 0.551772 3.05555 1.41008V0.85831C3.05555 0.613079 2.81111 0.367847 2.56667 0.367847H0.488887C0.244443 0.367847 -3.72993e-06 0.613079 -3.72993e-06 0.85831V14.7139C-3.72993e-06 14.9591 0.244443 15.2044 0.488887 15.2044H2.56667C2.81111 15.2044 3.05555 14.9591 3.05555 14.7139V6.31471C3.05555 4.29155 4.27778 2.94278 6.17222 2.94278C7.88333 2.94278 8.92222 4.16894 8.92222 6.00817V14.7752C8.92222 15.0204 9.16667 15.2657 9.41111 15.2657H11.4889C11.7333 15.2657 11.9778 15.0204 11.9778 14.7752V6.13079C12.0389 2.39101 9.96111 -2.33871e-07 6.66111 -2.33871e-07Z" transform="translate(88.2441 14.9592)" fill="#11AD7F"/>
<path d="M13.729 0H11.4679C11.2846 0 11.1013 0.122616 10.979 0.30654L7.19015 10.2384L3.27903 0.30654C3.21792 0.122616 3.03458 0 2.79014 0H0.529028C0.345695 0 0.223474 0.0613077 0.101252 0.245231C-0.02097 0.429155 -0.0209738 0.551772 0.0401374 0.735695L5.60125 14.2847L3.7068 19.0054C3.64569 19.1894 3.6457 19.312 3.76792 19.4959C3.89014 19.6185 4.01236 19.7411 4.19569 19.7411H6.27348C6.45681 19.7411 6.64014 19.6185 6.76236 19.4346L14.2179 0.674387C14.279 0.490463 14.279 0.367847 14.1568 0.183923C14.0346 0.0613074 13.9124 0 13.729 0Z" transform="translate(101.344 15.327)" fill="#11AD7F"/>
<path d="M7.27223 0.0613077C7.27223 0.0613077 6.78334 -4.67742e-07 6.35556 -4.67742e-07C3.3 -4.67742e-07 1.52778 1.83924 1.52778 5.08856V5.33379H0.488889C0.244444 5.33379 -1.86496e-06 5.57902 -1.86496e-06 5.82425V7.60218C-1.86496e-06 7.84741 0.244444 8.09264 0.488889 8.09264H1.52778V19.6798C1.52778 19.9251 1.77222 20.1703 2.01667 20.1703H4.15556C4.4 20.1703 4.64445 19.9251 4.64445 19.6798V8.09264H7.08889C7.33333 8.09264 7.57778 7.84741 7.57778 7.60218V5.82425C7.57778 5.57902 7.33333 5.33379 7.08889 5.33379H4.64445V5.08856C4.64445 3.0654 5.62222 2.82016 6.53889 2.82016C6.84444 2.82016 7.15 2.88147 7.15 2.88147C7.27222 2.88147 7.45556 2.88147 7.57778 2.75885C7.7 2.63624 7.76111 2.51362 7.76111 2.39101V0.551772C7.7 0.30654 7.51667 0.0613077 7.27223 0.0613077Z" transform="translate(116.846 9.99323)" fill="#11AD7F"/>
<path d="M7.7 -2.33871e-07C3.3 -2.33871e-07 -1.86496e-06 3.37193 -1.86496e-06 7.7861C-1.86496e-06 12.3229 3.23889 15.5722 7.7 15.5722C12.1 15.5722 15.4 12.2003 15.4 7.7861C15.4 3.37193 12.1 -2.33871e-07 7.7 -2.33871e-07ZM7.63889 12.6294C4.95 12.6294 3.05555 10.6063 3.05555 7.7861C3.05555 4.96594 4.95 2.94278 7.63889 2.94278C10.3278 2.94278 12.2222 4.96594 12.2222 7.7861C12.2833 10.6063 10.3278 12.6294 7.63889 12.6294Z" transform="translate(125.096 14.9592)" fill="#11AD7F"/>
<path d="M6.66111 -2.33871e-07C5.07222 -2.33871e-07 3.85 0.613079 3.05556 1.47139V0.85831C3.05556 0.613079 2.81111 0.367847 2.56667 0.367847H0.488885C0.244441 0.367847 3.72993e-06 0.613079 3.72993e-06 0.85831V14.7139C3.72993e-06 14.9591 0.244441 15.2044 0.488885 15.2044H2.56667C2.81111 15.2044 3.05556 14.9591 3.05556 14.7139V8.09264C3.05556 4.72071 4.21667 3.1267 6.66111 3.1267C6.90556 3.1267 7.15 2.88147 7.15 2.63624V0.551771C7.15 0.245231 6.90556 -2.33871e-07 6.66111 -2.33871e-07Z" transform="translate(142.756 14.9592)" fill="#11AD7F"/>
<path d="M7.13684 8.58311C5.2424 7.66349 3.59239 6.86649 3.59239 5.27248C3.59239 3.8624 4.63129 2.94278 6.22018 2.94278C8.05351 2.94278 8.90907 4.23024 9.27573 5.02725C9.39795 5.27248 9.6424 5.3951 9.88684 5.27248L11.7202 4.53678C11.9646 4.41417 12.0868 4.16894 12.0257 3.92371C11.7813 3.24932 10.4368 2.33871e-07 6.28127 2.33871e-07C2.85905 2.33871e-07 0.475728 2.14578 0.475728 5.27248C0.475728 8.76703 3.16462 10.0545 5.54795 11.158C7.50351 12.0777 9.21462 12.8747 9.21462 14.7752C9.21462 16.3692 8.11461 17.3501 6.34239 17.3501C4.57017 17.3501 3.34795 16.4918 2.73684 14.7752C2.67573 14.6526 2.61462 14.53 2.4924 14.4687C2.37017 14.4074 2.24795 14.4074 2.12573 14.4687L0.292393 15.2657C0.0479484 15.3883 -0.0742701 15.6335 0.0479521 15.8787C0.47573 17.2275 2.0035 20.3542 6.34239 20.3542C9.94794 20.3542 12.4535 18.0245 12.4535 14.6526C12.3313 11.0967 9.58129 9.74796 7.13684 8.58311Z" transform="translate(150.959 10.1772)" fill="#11AD7F"/>
<path d="M7.69999 -2.33871e-07C3.29999 -2.33871e-07 7.45985e-06 3.37193 7.45985e-06 7.7861C7.45985e-06 12.3229 3.23888 15.5722 7.69999 15.5722C12.1 15.5722 15.4 12.2003 15.4 7.7861C15.4 3.37193 12.1 -2.33871e-07 7.69999 -2.33871e-07ZM7.69999 12.6294C5.0111 12.6294 3.11666 10.6063 3.11666 7.7861C3.11666 4.96594 5.0111 2.94278 7.69999 2.94278C10.3889 2.94278 12.2833 4.96594 12.2833 7.7861C12.2833 10.6063 10.3889 12.6294 7.69999 12.6294Z" transform="translate(164.816 14.9592)" fill="#11AD7F"/>
<path d="M7.27223 0.0613077C7.27223 0.0613077 6.78334 -4.67742e-07 6.35556 -4.67742e-07C3.30001 -4.67742e-07 1.52777 1.83924 1.52777 5.08856V5.33379H0.488893C0.244448 5.33379 -7.45985e-06 5.57902 -7.45985e-06 5.82425V7.60218C-7.45985e-06 7.84741 0.244448 8.09264 0.488893 8.09264H1.52777V19.6798C1.52777 19.9251 1.77223 20.1703 2.01667 20.1703H4.15556C4.4 20.1703 4.64444 19.9251 4.64444 19.6798V8.09264H7.08888C7.33333 8.09264 7.57779 7.84741 7.57779 7.60218V5.82425C7.57779 5.57902 7.33333 5.33379 7.08888 5.33379H4.64444V5.08856C4.64444 3.0654 5.62222 2.82016 6.53889 2.82016C6.84444 2.82016 7.15 2.88147 7.15 2.88147C7.27222 2.88147 7.45556 2.88147 7.57779 2.75885C7.70001 2.63624 7.76111 2.51362 7.76111 2.39101V0.551772C7.7 0.30654 7.51667 0.0613077 7.27223 0.0613077Z" transform="translate(181.377 9.99323)" fill="#11AD7F"/>
<path d="M7.6389 15.0817C7.51667 14.9591 7.39445 14.9591 7.27223 14.9591C7.27223 14.9591 6.96667 14.9591 6.72223 14.9591C5.31667 14.9591 4.64444 14.7139 4.64444 12.2616V5.64033H7.15C7.39444 5.64033 7.6389 5.3951 7.6389 5.14986V3.37193C7.6389 3.1267 7.39444 2.88147 7.15 2.88147H4.64444V0.490463C4.64444 0.245232 4.4 -4.67742e-07 4.15556 -4.67742e-07H2.07778C1.83334 -4.67742e-07 1.58888 0.245232 1.58888 0.490463V2.88147H0.488889C0.244444 2.88147 7.45985e-06 3.1267 7.45985e-06 3.37193V5.14986C7.45985e-06 5.3951 0.244444 5.64033 0.488889 5.64033H1.58888V12.4455C1.58888 16.921 4.03334 17.9019 6.05 17.9019C6.78334 17.9019 7.39444 17.8406 7.39444 17.8406C7.63888 17.7793 7.82222 17.5954 7.82222 17.3501V15.5109C7.82222 15.327 7.76112 15.2044 7.6389 15.0817Z" transform="translate(190.178 12.4455)" fill="#11AD7F"/>
</svg>
