<svg width="97" height="65" viewBox="0 0 97 65" fill="none" xmlns="http://www.w3.org/2000/svg">
<path d="M96.7334 61.8076L68.7037 8.77899C66.1395 3.8131 59.6847 0 54.1141 0H41.7351C36.1645 0 29.7981 3.90177 27.1455 8.77899L0.530531 59.236C-0.176844 60.5662 -0.176844 61.985 0.530531 63.1378C1.23791 64.2906 2.47581 64.9113 3.97898 64.9113H7.95796C10.3454 64.9113 12.998 63.3151 14.0591 61.1869L37.4908 16.7599C38.6403 14.6316 41.6467 12.7694 44.0341 12.7694H51.8152C54.2026 12.7694 57.2089 14.6316 58.3584 16.7599L81.0828 59.8568C81.2596 60.2115 80.9944 60.5662 80.5523 60.5662H78.0764C77.2806 60.5662 76.1312 59.8567 75.7775 59.1473L55.6173 20.839C54.4678 18.7108 51.9036 17.1146 49.5162 17.1146H46.4214C44.0341 17.1146 41.3814 18.7108 40.3203 20.839L20.0717 59.1473C19.3644 60.4775 19.3644 61.8963 19.9833 63.0491C20.6907 64.2019 21.9286 64.8226 23.4318 64.8226H27.4108C29.7981 64.8226 32.4508 63.2265 33.5119 61.0982L47.3941 34.7613C47.5709 34.4065 47.9246 34.4065 48.1899 34.7613L53.9373 45.7572C54.2026 46.2005 53.9373 46.5553 53.4952 46.5553H46.5983C45.4488 46.5553 44.4762 47.5307 44.4762 48.6835C44.4762 49.8363 45.4488 50.8117 46.5983 50.8117H54.9984C56.5015 50.8117 57.8279 50.191 58.4468 49.0382C59.1542 47.8854 59.1542 46.4666 58.3584 45.1364L50.931 30.9482C50.2236 29.5293 48.9857 28.7312 47.6593 28.7312C46.333 28.7312 45.1835 29.5293 44.3877 30.9482L29.5329 59.1473C29.1792 59.8567 28.0297 60.5662 27.2339 60.5662H24.7581C24.316 60.5662 24.0507 60.2115 24.316 59.8568L43.7688 22.9673C44.1225 22.2578 45.272 21.5484 46.0678 21.5484H49.1625C49.9583 21.5484 51.1078 22.2578 51.4615 22.9673L71.6217 61.2756C72.7711 63.4038 75.3354 65 77.7228 65H81.7017C83.2049 65 84.5312 64.3793 85.1502 63.2265C85.8576 62.0737 85.8576 60.6548 85.1502 59.3247L61.7184 14.8977C59.8616 11.3506 55.352 8.60164 51.3731 8.60164H43.5919C39.613 8.60164 35.1035 11.3506 33.2466 14.8977L9.81482 59.3247C9.46113 60.0341 8.31165 60.7435 7.51585 60.7435H5.04004C4.59793 60.7435 4.42109 60.4775 4.50951 60.0341L30.4171 10.8186C32.274 7.27149 37.2256 4.34516 41.2046 4.34516H53.5836C57.5626 4.34516 62.5142 7.27149 64.3711 10.8186L92.3124 63.8472C92.666 64.5566 93.4618 65 94.2576 65C94.6113 65 94.965 64.9113 95.2303 64.734C96.9103 64.2019 97.3524 62.8718 96.7334 61.8076Z" fill="#1E1F24" fill-opacity="0.2"/>
</svg>
