<svg width="32" height="28" viewBox="0 0 32 28" fill="none" xmlns="http://www.w3.org/2000/svg">
<path d="M31.875 13.6L24.275 0.4C24.075 0.1 23.875 0 23.575 0H8.375C8.075 0 7.875 0.1 7.675 0.4L0.075 13.6C-0.025 13.8 -0.025 14.1 0.075 14.4L7.675 27.6C7.775 27.8 8.075 28 8.375 28H23.575C23.875 28 24.075 27.9 24.275 27.6L31.875 14.4C31.975 14.1 31.975 13.8 31.875 13.6ZM15.975 21.5C11.875 21.5 8.475 18.1 8.475 14C8.475 9.9 11.875 6.5 15.975 6.5C20.075 6.5 23.475 9.9 23.475 14C23.475 18.1 20.075 21.5 15.975 21.5Z" fill="white"/>
</svg>
