<svg width="99" height="98" viewBox="0 0 99 98" fill="none" xmlns="http://www.w3.org/2000/svg">
<path d="M70.7522 14.7263C70.7522 9.81753 70.7522 4.90877 70.7522 2.67506e-06C47.1977 2.67506e-06 23.5546 2.67506e-06 -1.68898e-07 2.67506e-06C-1.68898e-07 4.90877 -1.68898e-07 9.81753 -1.68898e-07 14.7263C23.5546 11.483 47.1977 11.483 70.7522 14.7263Z" transform="translate(3.80859 83.0981)" fill="#FFC124"/>
<path d="M59.4177 5.25939C53.839 5.25939 49.3229 9.72987 49.3229 15.2522C49.3229 16.1288 49.5 17.0054 49.7657 18.0572L51.8909 24.8945H44.7182H25.1485V44.2665V51.3667L18.3301 49.1753C17.2674 48.8247 16.3819 48.737 15.4964 48.737C9.91771 48.737 5.40161 53.2075 5.40161 58.7299C5.40161 64.2522 9.91771 68.7227 15.4964 68.7227C16.3819 68.7227 17.2674 68.5474 18.3301 68.2844L25.237 66.1807V73.2809V92.6529H93.5984V73.8068C91.8274 74.508 89.8792 74.771 87.9311 74.771C78.9875 74.771 71.6377 67.4955 71.6377 58.6422C71.6377 49.7889 78.9875 42.5134 87.9311 42.5134C89.8792 42.5134 91.8274 42.864 93.5984 43.4776V24.8068H74.0286H66.856L68.9812 17.9696C69.3354 16.9177 69.424 16.0411 69.424 15.1646C69.424 9.72987 64.9079 5.25939 59.4177 5.25939ZM59.4177 0C67.9186 0 74.8256 6.83721 74.8256 15.2522C74.8256 16.8301 74.5599 18.2326 74.1172 19.6351H96.7862C97.9374 19.6351 99 20.6869 99 21.8265V49.0877C99 49.8766 98.4687 50.6655 97.6717 51.0161C97.4061 51.1038 97.1404 51.1914 96.7862 51.1914C96.2549 51.1914 95.7236 51.0161 95.2809 50.6655C93.3327 48.9123 90.7648 47.9481 87.9311 47.9481C81.8211 47.9481 76.9508 52.7692 76.9508 58.8175C76.9508 64.8658 81.8211 69.6869 87.9311 69.6869C90.7648 69.6869 93.3327 68.6351 95.2809 66.8819C95.7236 66.5313 96.2549 66.356 96.7862 66.356C97.0519 66.356 97.4061 66.4436 97.6717 66.5313C98.4687 66.8819 98.9114 67.6708 98.9114 68.5474V95.8086C98.9114 96.9481 97.8488 98 96.6977 98H22.0492C20.898 98 19.8354 96.9481 19.8354 95.8086V73.1932C18.4186 73.6315 17.0018 73.8945 15.4079 73.8945C6.99553 73.8945 -6.7559e-07 67.0572 -6.7559e-07 58.6422C-6.7559e-07 50.2272 6.90698 43.39 15.4079 43.39C17.0018 43.39 18.4186 43.653 19.8354 44.0912V21.7388C19.8354 20.5993 20.898 19.5474 22.0492 19.5474H44.7182C44.2755 18.1449 44.0098 16.7424 44.0098 15.1646C44.0098 6.83721 50.9168 0 59.4177 0Z" transform="translate(99) scale(-1 1)" fill="black"/>
</svg>
