<svg width="102" height="97" viewBox="0 0 102 97" fill="none" xmlns="http://www.w3.org/2000/svg">
<path d="M80.3998 96.9991C79.8421 96.9991 79.2844 96.8403 78.8064 96.6022L53.4699 83.3462C51.9561 82.5524 50.0439 82.5524 48.5301 83.3462L23.1936 96.6022C21.9985 97.2372 20.6441 97.0784 19.5286 96.3641C18.4132 95.6497 17.9351 94.3002 18.1742 93.0302L23.0343 64.9306C23.353 63.1843 22.7953 61.438 21.5205 60.2474L1.04416 40.3237C0.0880623 39.3711 -0.230635 38.0217 0.167737 36.8311C0.566109 35.561 1.68155 34.6879 2.95634 34.5291L31.2408 30.4015C32.9936 30.1634 34.5074 29.0521 35.2245 27.5439L47.8927 1.90506C48.5301 0.714396 49.7252 0 51 0C52.3545 0 53.4699 0.714396 54.1073 1.90506L66.7755 27.4645C67.5723 29.0521 69.0064 30.084 70.7593 30.3221L99.0437 34.4498C100.318 34.6085 101.434 35.561 101.832 36.7517C102.231 38.0217 101.912 39.3711 100.956 40.2443L80.4795 60.168C79.2047 61.3587 78.647 63.105 78.9657 64.8513L83.8258 92.9508C84.0649 94.2209 83.5071 95.5703 82.4714 96.2847C81.834 96.7609 81.1169 96.9991 80.3998 96.9991ZM51 77.9485C52.5935 77.9485 54.2667 78.3454 55.7008 79.1392L78.647 91.1252L74.2649 65.7244C73.7072 62.4699 74.8226 59.1361 77.1332 56.8342L95.6973 38.8155L70.0422 35.0848C66.7755 34.6085 63.9073 32.5447 62.4731 29.6077L51 6.42956L39.5269 29.6077C38.0927 32.5447 35.2245 34.6085 31.9578 35.0848L6.30267 38.8155L24.8668 56.8342C27.257 59.1361 28.2928 62.4699 27.7351 65.7244L23.353 91.1252L46.2992 79.1392C47.813 78.3454 49.4065 77.9485 51 77.9485Z" fill="black"/>
<path d="M2.91735 31.3143C2.35963 31.3143 1.80191 30.9175 1.72224 30.2824L0.128748 18.2965C-0.428973 14.407 0.845814 10.5969 3.55474 7.73929L10.7254 0.357197C11.2035 -0.119067 11.9206 -0.119067 12.3986 0.357197C12.8766 0.833461 12.8766 1.54786 12.3986 2.02412L5.2279 9.40621C2.99702 11.7082 1.96125 14.8039 2.4393 17.979L4.03279 29.9649C4.11246 30.6 3.63442 31.235 2.99703 31.3143C3.0767 31.3143 2.99703 31.3143 2.91735 31.3143Z" transform="translate(66.6465 45.7612)" fill="black"/>
<path d="M13.6243 67.7088L20.2373 52.5478C25.3365 40.7999 15.9349 33.8941 10.756 29.2902L20.2373 28.5758C26.5316 27.7027 30.595 23.3369 31.8698 17.6218L35.6941 3.028e-07L27.2486 17.0661C25.6552 20.3206 22.5479 22.6225 18.8828 23.0988L6.07867e-07 25.7976L13.704 39.0536C16.3333 41.5937 17.5284 45.2451 16.891 48.817L13.6243 67.7088Z" transform="translate(15.3066 15.9546)" fill="#FFC124"/>
</svg>
