<svg width="102" height="101" viewBox="0 0 102 101" fill="none" xmlns="http://www.w3.org/2000/svg">
<path d="M88.0459 27.809C80.3936 27.809 74.1818 34.0592 74.1818 41.7587C74.1818 42.9363 74.3619 44.1139 74.632 45.2009L70.9409 46.5596C68.2401 40.5812 62.3883 36.4143 55.4563 36.3238L55.0062 27.7184C61.6681 26.722 66.7096 20.9247 66.7096 13.9498C66.7996 6.25022 60.5878 0 52.9356 0C45.2833 0 39.1615 6.25022 39.1615 13.9498C39.1615 21.4682 45.0132 27.5372 52.3954 27.809L52.8455 36.4143C46.7237 37.2296 41.5022 41.3058 39.1615 46.922L27.368 42.9363H27.278C27.5481 41.9399 27.6381 40.8529 27.6381 39.8565C27.6381 32.157 21.4263 25.9067 13.7741 25.9067C6.1218 25.9067 0 32.157 0 39.7659C0 47.3749 6.21183 53.7157 13.8641 53.7157C19.5357 53.7157 24.3071 50.3641 26.4678 45.4726C26.4678 45.4726 26.4678 45.4726 26.5578 45.4726L38.4413 49.4583C38.0812 50.817 37.9011 52.2664 37.9011 53.7157C37.9011 57.7013 39.2515 61.4152 41.5022 64.4045L37.0009 68.5713C34.5702 66.3067 31.3292 64.948 27.7282 64.948C20.0759 64.948 13.8641 71.1982 13.8641 78.8978C13.8641 86.5973 20.0759 92.8475 27.7282 92.8475C35.3804 92.8475 41.5922 86.5973 41.5922 78.8978C41.5922 75.8179 40.6019 72.9193 38.8014 70.5641L43.3027 66.3973C46.4537 69.3866 50.5949 71.1982 55.1862 71.1982C57.2568 71.1982 59.2374 70.8359 61.128 70.1112L63.3786 75.1839C59.4175 77.6296 56.8067 81.9776 56.8067 87.0502C56.8067 94.7498 63.0185 101 70.6708 101C78.323 101 84.5349 94.7498 84.5349 87.0502C84.5349 79.3507 78.323 73.1004 70.6708 73.1004C68.9603 73.1004 67.3398 73.4628 65.8093 74.0063L63.5587 69.0242C68.8703 66.035 72.5613 60.3283 72.5613 53.7157C72.5613 52.0852 72.2913 50.5453 71.9312 49.096L75.6222 47.7372C77.8729 52.4475 82.5543 55.7085 88.1359 55.7085C95.7882 55.7085 102 49.4583 102 41.7587C101.91 34.0592 95.6981 27.809 88.0459 27.809ZM13.8641 48.2807C9.1827 48.2807 5.40159 44.4762 5.40159 39.7659C5.40159 35.0556 9.1827 31.2511 13.8641 31.2511C18.5455 31.2511 22.3266 35.0556 22.3266 39.7659C22.3266 44.4762 18.4554 48.2807 13.8641 48.2807ZM79.0433 87.0502C79.0433 91.7605 75.2621 95.565 70.5808 95.565C65.8994 95.565 62.1183 91.7605 62.1183 87.0502C62.1183 82.3399 65.8994 78.5354 70.5808 78.5354C75.2621 78.5354 79.0433 82.3399 79.0433 87.0502ZM44.5631 13.9498C44.5631 9.23946 48.3442 5.43498 53.0256 5.43498C57.707 5.43498 61.4881 9.23946 61.4881 13.9498C61.4881 18.6601 57.707 22.4646 53.0256 22.4646C48.3442 22.374 44.5631 18.5695 44.5631 13.9498ZM27.6381 87.322C22.9568 87.322 19.1756 83.5175 19.1756 78.8072C19.1756 74.0969 22.9568 70.2924 27.6381 70.2924C32.3195 70.2924 36.1006 74.0969 36.1006 78.8072C36.1006 83.5175 32.3195 87.322 27.6381 87.322ZM55.1862 65.7632C48.6143 65.7632 43.2127 60.3283 43.2127 53.7157C43.2127 47.1031 48.6143 41.6682 55.1862 41.6682C61.7582 41.6682 67.1598 47.1031 67.1598 53.7157C67.1598 60.3283 61.7582 65.7632 55.1862 65.7632ZM88.0459 50.2735C83.3645 50.2735 79.5834 46.4691 79.5834 41.7587C79.5834 37.0484 83.3645 33.2439 88.0459 33.2439C92.7273 33.2439 96.5084 37.0484 96.5084 41.7587C96.5084 46.4691 92.7273 50.2735 88.0459 50.2735Z" fill="black"/>
<path d="M7.4722 15.0368C11.599 15.0368 14.9444 11.6707 14.9444 7.51839C14.9444 3.3661 11.599 0 7.4722 0C3.34542 0 0 3.3661 0 7.51839C0 11.6707 3.34542 15.0368 7.4722 15.0368Z" transform="translate(47.7148 46.2881)" fill="#FFC124"/>
</svg>
