<svg width="323" height="319" viewBox="0 0 323 319" fill="none" xmlns="http://www.w3.org/2000/svg">
<path d="M278.812 87.8323C254.58 87.8323 234.909 107.573 234.909 131.891C234.909 135.611 235.479 139.33 236.335 142.763L224.646 147.055C216.094 128.172 197.563 115.012 175.612 114.726L174.186 87.5462C195.282 84.3991 211.247 66.0888 211.247 44.0592C211.532 19.7408 191.861 0 167.629 0C143.397 0 124.011 19.7408 124.011 44.0592C124.011 67.8054 142.542 86.974 165.919 87.8323L167.344 115.012C147.959 117.587 131.424 130.461 124.011 148.199L86.6655 135.611H86.3804C87.2357 132.464 87.5207 129.03 87.5207 125.883C87.5207 101.565 67.85 81.8242 43.6178 81.8242C19.3857 81.8242 0 101.565 0 125.597C0 149.63 19.6708 169.656 43.9029 169.656C61.8632 169.656 76.9726 159.071 83.8147 143.622C83.8147 143.622 83.8147 143.622 84.0997 143.622L121.731 156.21C120.59 160.501 120.02 165.079 120.02 169.656C120.02 182.245 124.297 193.975 131.424 203.416L117.169 216.577C109.472 209.424 99.2092 205.133 87.8058 205.133C63.5737 205.133 43.9029 224.874 43.9029 249.192C43.9029 273.51 63.5737 293.251 87.8058 293.251C112.038 293.251 131.709 273.51 131.709 249.192C131.709 239.465 128.573 230.309 122.871 222.871L137.125 209.71C147.103 219.152 160.217 224.874 174.756 224.874C181.313 224.874 187.585 223.729 193.572 221.44L200.699 237.462C188.155 245.187 179.888 258.919 179.888 274.941C179.888 299.259 199.559 319 223.791 319C248.023 319 267.694 299.259 267.694 274.941C267.694 250.622 248.023 230.882 223.791 230.882C218.374 230.882 213.243 232.026 208.396 233.743L201.269 218.007C218.089 208.566 229.778 190.542 229.778 169.656C229.778 164.507 228.922 159.643 227.782 155.065L239.47 150.774C246.598 165.651 261.422 175.951 279.097 175.951C303.329 175.951 323 156.21 323 131.891C322.715 107.573 303.044 87.8323 278.812 87.8323ZM43.9029 152.491C29.0786 152.491 17.105 140.474 17.105 125.597C17.105 110.72 29.0786 98.704 43.9029 98.704C58.7273 98.704 70.7008 110.72 70.7008 125.597C70.7008 140.474 58.4422 152.491 43.9029 152.491ZM250.304 274.941C250.304 289.818 238.33 301.834 223.506 301.834C208.681 301.834 196.708 289.818 196.708 274.941C196.708 260.064 208.681 248.048 223.506 248.048C238.33 248.048 250.304 260.064 250.304 274.941ZM141.117 44.0592C141.117 29.1821 153.09 17.1659 167.914 17.1659C182.739 17.1659 194.712 29.1821 194.712 44.0592C194.712 58.9363 182.739 70.9525 167.914 70.9525C153.09 70.6664 141.117 58.6502 141.117 44.0592ZM87.5207 275.799C72.6964 275.799 60.7229 263.783 60.7229 248.906C60.7229 234.029 72.6964 222.013 87.5207 222.013C102.345 222.013 114.319 234.029 114.319 248.906C114.319 263.783 102.345 275.799 87.5207 275.799ZM174.756 207.708C153.945 207.708 136.84 190.542 136.84 169.656C136.84 148.771 153.945 131.605 174.756 131.605C195.568 131.605 212.673 148.771 212.673 169.656C212.673 190.542 195.568 207.708 174.756 207.708ZM278.812 158.785C263.988 158.785 252.014 146.769 252.014 131.891C252.014 117.014 263.988 104.998 278.812 104.998C293.636 104.998 305.61 117.014 305.61 131.891C305.61 146.769 293.636 158.785 278.812 158.785Z" fill="#1E1D25"/>
</svg>
