<svg width="124" height="83" viewBox="0 0 124 83" fill="none" xmlns="http://www.w3.org/2000/svg">
<path d="M122.211 78.3412L86.7988 11.1274C83.5592 4.8331 75.4044 0 68.3667 0H52.7272C45.6895 0 37.6463 4.9455 34.295 11.1274L0.670261 75.0817C-0.22342 76.7676 -0.22342 78.566 0.670261 80.0272C1.56394 81.4883 3.12789 82.2751 5.02696 82.2751H10.0539C13.0701 82.2751 16.4214 80.252 17.7619 77.5544L47.3651 21.2432C48.8174 18.5456 52.6155 16.1853 55.6317 16.1853H65.4622C68.4784 16.1853 72.2765 18.5456 73.7287 21.2432L102.438 75.8684C102.662 76.318 102.327 76.7676 101.768 76.7676H98.6401C97.6347 76.7676 96.1825 75.8684 95.7357 74.9693L70.2657 26.4135C68.8135 23.7159 65.5739 21.6928 62.5577 21.6928H58.6479C55.6317 21.6928 52.2804 23.7159 50.9399 26.4135L25.3582 74.9693C24.4645 76.6552 24.4645 78.4536 25.2465 79.9148C26.1402 81.3759 27.7041 82.1627 29.6032 82.1627H34.6302C37.6463 82.1627 40.9977 80.1396 42.3382 77.442L59.8767 44.0599C60.1001 43.6103 60.5469 43.6103 60.8821 44.0599L68.1432 57.9972C68.4784 58.5592 68.1432 59.0088 67.5847 59.0088H58.8713C57.4191 59.0088 56.1902 60.2452 56.1902 61.7063C56.1902 63.1675 57.4191 64.4039 58.8713 64.4039H69.4838C71.3828 64.4039 73.0585 63.6171 73.8405 62.1559C74.7341 60.6948 74.7341 58.8964 73.7287 57.2104L64.3451 39.2268C63.4514 37.4284 61.8875 36.4169 60.2118 36.4169C58.5362 36.4169 57.0839 37.4284 56.0785 39.2268L37.3112 74.9693C36.8644 75.8684 35.4121 76.7676 34.4067 76.7676H31.2789C30.7203 76.7676 30.3852 76.318 30.7203 75.8684L55.2966 29.111C55.7434 28.2118 57.1956 27.3126 58.201 27.3126H62.1109C63.1163 27.3126 64.5685 28.2118 65.0154 29.111L90.4853 77.6668C91.9375 80.3643 95.1771 82.3875 98.1933 82.3875H103.22C105.119 82.3875 106.795 81.6007 107.577 80.1396C108.471 78.6784 108.471 76.88 107.577 75.1941L77.9737 18.8828C75.6278 14.3869 69.9306 10.9026 64.9036 10.9026H55.0731C50.0462 10.9026 44.349 14.3869 42.003 18.8828L12.3998 75.1941C11.953 76.0932 10.5008 76.9924 9.49537 76.9924H6.36748C5.80893 76.9924 5.58551 76.6552 5.69722 76.0932L38.4283 13.7125C40.7742 9.21661 47.03 5.50749 52.057 5.50749H67.6964C72.7234 5.50749 78.9791 9.21661 81.325 13.7125L116.625 80.9263C117.072 81.8255 118.078 82.3875 119.083 82.3875C119.53 82.3875 119.977 82.2751 120.312 82.0503C122.434 81.3759 122.993 79.69 122.211 78.3412Z" transform="translate(0.574219)" fill="#FFC126"/>
</svg>
